<?xml version="1.0" encoding="utf-8"?>
<!-- Generator: Adobe Illustrator 18.1.1, SVG Export Plug-In . SVG Version: 6.00 Build 0)  -->
<svg version="1.1" id="Layer_1" xmlns="http://www.w3.org/2000/svg" xmlns:xlink="http://www.w3.org/1999/xlink" x="0px" y="0px"
	 width="360px" height="360px" viewBox="0 0 360 360" style="enable-background:new 0 0 360 360;" xml:space="preserve">
<style type="text/css">
	.st0{fill:#231F20;}
	.st1{fill:none;}
	.st2{fill:#FFFFFF;}
</style>
<path class="st0" d="M281.4,308.1H73.3c-6.6,0-12-5.4-12-12V88c0-6.6,5.4-12,12-12h208.1c6.6,0,12,5.4,12,12v208.1
	C293.4,302.7,288,308.1,281.4,308.1z"/>
<g>
	<rect x="70.7" y="111.1" class="st1" width="228" height="232.1"/>
	<path class="st2" d="M69.2,214.5c0-9.8,3.1-23,9.4-39.7c6.3-16.6,13.3-31.3,21-43.9c7.8-12.6,13.7-18.9,17.8-18.9
		c1.6,0,2.8,1,3.6,3c0.9,2,1.3,4.3,1.3,6.7c0,4.9-1.6,11.2-4.9,19c-3.3,7.8-7.7,15.6-13.3,23.2c-5.6,7.7-11.3,13.3-17.1,16.8
		c-1.3,2.5-2.9,7.1-4.7,14c-1.8,6.8-2.7,13.1-2.7,18.8c0,9.8,2.8,14.7,8.5,14.7c3,0,6.1-1.2,9.3-3.7c3.2-2.5,5.8-5.6,7.8-9.5
		c-3.6-1.9-6.4-4.6-8.4-8.3c-2-3.7-2.9-7.6-2.9-11.7c0-4.9,1.3-8.8,3.8-11.9c2.5-3,5.6-4.6,9.2-4.6c3,0,5.4,1.2,7.1,3.7
		c1.8,2.5,2.6,6,2.6,10.5c0,6.8-1.8,13.8-5.4,21.1c1.2,0.3,2.6,0.5,4,0.5c2.6,0,5-0.5,7.1-1.5c2.2-1,4.1-2.5,5.7-4.4
		c1.6-2,2.9-3.7,3.9-5.2c1-1.5,2-3.4,3.2-5.8l1.9,2c-4.9,11.8-12.2,17.7-22.2,17.7c-1.8,0-3.4-0.2-5-0.5
		c-6.8,11.5-15,17.2-24.6,17.2c-5.3,0-9.2-1.7-11.9-5.2C70.5,225.4,69.2,220.6,69.2,214.5z M88.7,174.8c6.6-5.3,13-13.6,19.1-25
		c6.1-11.4,9.2-19.4,9.2-23.9c0-0.8-0.2-1.2-0.6-1.2c-1.1,0-3.4,2.5-6.9,7.4c-3.5,5-7.3,11.5-11.4,19.6
		C94,159.8,90.9,167.5,88.7,174.8z M99.2,195.9c0,7.4,2.5,12.8,7.4,16.1c2.4-5.1,3.6-10.3,3.6-15.7c0-3.5-0.5-6.3-1.5-8.4
		c-1-2.1-2.2-3.2-3.6-3.2c-1.6,0-2.9,1.1-4.1,3.3C99.8,190.2,99.2,192.8,99.2,195.9z"/>
	<path class="st2" d="M132.2,211.6c0-7,2-16.4,6-28.2c4-11.7,8.7-22.9,14-33.4c5.3-10.5,10.7-19.6,16.1-27.3
		c5.4-7.7,9.4-11.6,12-11.6c1.4,0,2.7,1.3,3.6,3.9c1,2.6,1.5,5.1,1.5,7.6c0,7.8-4.2,19.6-12.7,35.5c-8.5,15.9-18,28.2-28.5,36.9
		c-1.3,6-2,11.2-2,15.7c0,8,2.3,12,6.8,12c3.8,0,7.7-2.4,11.7-7.3c4-4.9,7.5-10.7,10.6-17.5l2.3,1.2c-8.9,18.9-18.5,28.4-29,28.4
		h-0.2C136.4,227.4,132.2,222.1,132.2,211.6z M145.7,189.7c8.5-8.6,16.4-19.9,23.9-33.9c7.4-14,11.2-23.9,11.2-29.6
		c0-1.7-0.4-2.5-1.1-2.5c-1.4,0-4.3,3.3-8.6,10c-4.3,6.7-8.9,15.3-13.9,26S148.4,180.4,145.7,189.7z"/>
	<path class="st2" d="M166.8,213.6c0-6.6,1.9-13.2,5.7-19.8c3.8-6.6,7.8-9.8,12.2-9.8c0.9,0,2,0.3,3.3,0.8c-2,1.7-4.3,5.8-7,12.3
		c-2.7,6.6-4,11.7-4,15.4c0,6.1,1.9,9.1,5.6,9.1c4.5,0,10.1-4.2,16.6-12.7c-2.9-2.4-5.1-5.5-6.7-9.3c-1.6-3.8-2.4-7.8-2.4-11.9
		c0-5.4,1.4-10,4.1-13.9c2.7-3.9,6.4-5.8,11.1-5.8c7.1,0,10.7,4,10.7,12.1s-3.5,17.3-10.4,27.6c1.9,1,3.8,1.6,5.9,1.6
		c3,0,6.1-0.9,9.3-2.7c3.2-1.8,5.6-4.6,7.3-8.4l1.9,1.5c-2,4.5-4.8,7.9-8.4,10.1c-3.6,2.2-7.3,3.3-11.2,3.3c-2.8,0-5.3-0.5-7.4-1.5
		c-8.3,10.8-16.2,16.3-23.7,16.3c-4.2,0-7.3-1.3-9.3-3.9C167.8,221.3,166.8,217.9,166.8,213.6z M196.6,188.2c0,7,1.8,12.6,5.3,16.7
		c6-8.9,9-16.8,9-23.9c0-5.8-1.5-8.7-4.7-8.7c-2.3,0-4.4,1.6-6.5,4.7C197.6,180.3,196.6,183.9,196.6,188.2z"/>
	<path class="st2" d="M221.8,257.3c0-2.1,0.4-4,1.2-5.9c0.8-1.9,2.1-3.7,4-5.4c1.9-1.8,3.5-3.3,4.9-4.5c1.4-1.2,3.6-2.7,6.7-4.4
		l6.5-3.6c1.2-0.7,3.6-1.9,7-3.6c2.9-7.3,5.5-15.7,7.9-25.2c-9.2,12.9-17.6,19.4-25.3,19.4c-3.6,0-6.5-1.3-8.5-4
		c-2.1-2.6-3.1-6.2-3.1-10.6c0-6.9,2.2-13.6,6.7-20c4.5-6.4,9.9-11.5,16.2-15.1c6.3-3.7,12.3-5.5,18-5.5c5.6,0,8.4,1.7,8.4,5
		c0,1.7-0.6,2.7-1.9,3.1c-1.1-1.6-3.2-2.4-6.2-2.4c-7.6,0-14.8,4.1-21.3,12.4c-6.6,8.3-9.8,16-9.8,23.3c0,5.1,1.8,7.7,5.4,7.7
		c2.8,0,6.3-1.9,10.5-5.8c4.2-3.9,8.3-8.9,12.5-14.9l1.9-8.3c1.1-5.3,3.8-8,7.9-8c0.9,0,2,0.2,3.3,0.5c0,2.8-1.1,8.4-3.4,16.8
		c-2.3,8.4-5.1,16.9-8.5,25.6c5.4-2.5,10.4-6.1,15-10.6c4.6-4.5,8-9.6,10.3-15.2l2,1.6c-2.2,6.2-6.1,11.9-11.7,17
		c-5.6,5.1-11.4,9-17.3,11.8c-10.4,25.2-20.5,37.8-30.2,37.8c-2.5,0-4.5-0.7-6.3-2.2C222.7,262.5,221.8,260.2,221.8,257.3z
		 M226.6,255.9c0,1.7,0.3,3,1,4c0.7,1,1.5,1.5,2.6,1.5c2.4,0,5.3-2.3,8.9-6.8c3.6-4.5,7.3-11.3,11.1-20.5
		c-7.5,3.8-13.4,7.4-17.5,10.7C228.7,248.2,226.6,251.8,226.6,255.9z"/>
</g>
<g>
</g>
<g>
</g>
<g>
</g>
<g>
</g>
<g>
</g>
<g>
</g>
<g>
</g>
</svg>
