<?xml version="1.0" encoding="utf-8"?>
<!-- Generator: Adobe Illustrator 18.1.1, SVG Export Plug-In . SVG Version: 6.00 Build 0)  -->
<svg version="1.1" id="Layer_1" xmlns="http://www.w3.org/2000/svg" xmlns:xlink="http://www.w3.org/1999/xlink" x="0px" y="0px"
	 width="360px" height="360px" viewBox="0 0 360 360" style="enable-background:new 0 0 360 360;" xml:space="preserve">
<style type="text/css">
	.st0{fill:#231F20;}
	.st1{fill:none;}
	.st2{fill:#FFFFFF;}
</style>
<path class="st0" d="M259.9,302.1H51.7c-6.6,0-12-5.4-12-12V82c0-6.6,5.4-12,12-12h208.1c6.6,0,12,5.4,12,12v208.1
	C271.9,296.7,266.5,302.1,259.9,302.1z"/>
<g>
	<rect x="64.1" y="65" class="st1" width="207.7" height="232.1"/>
	<path class="st2" d="M45.4,315.8c0-14.1,4-35.1,12.1-63c8.1-27.9,17.9-55.7,29.4-83.6c11.5-27.9,24.4-52.2,38.6-73
		C139.8,75.4,152.3,65,163.1,65c6.2,0,9.4,4.1,9.4,12.3c0,14.8-7.6,32.4-22.7,52.8c-15.1,20.3-32,37-50.7,50
		c-1.3,2.9-3,7.5-5.2,13.7c3.8,0.9,6.1,3.8,6.9,8.8c0.9,6.2,1.6,11,2.2,14.3c0.6,3.3,1.5,7.1,2.8,11.4c1.3,4.3,2.7,7.5,4.1,9.5
		c1.5,2,3.5,3.8,6.1,5.4c2.6,1.6,5.5,2.3,8.8,2.3c6,0,11.2-2.1,15.5-6.3c4.3-4.2,9.3-11.1,15-20.6l4.1,2.7
		c-4.4,10.3-10,18-16.8,23.3c-6.8,5.3-13.2,8-19.2,8c-7,0-13.8-3-20.4-9.1c-0.2,23.3-4.7,45.2-13.6,65.7
		C80.4,329.7,70.8,340,60.6,340c-3.8,0-7.3-1.8-10.4-5.4C47,331.1,45.4,324.8,45.4,315.8z M62.5,313.6c0,8.8,1.7,13.2,5.2,13.2
		c5.1,0,11.1-9.8,17.9-29.3c6.8-19.5,10.2-36.5,10.2-51c0-9.2-3.1-19.9-9.4-32.1C70.5,261.3,62.5,294.4,62.5,313.6z M103.5,168.8
		c16.5-15.2,30.3-31,41.5-47.4c11.2-16.4,16.8-27.7,16.8-33.9c0-2.6-1.3-3.8-3.9-3.8c-6.8,0-15,7.9-24.8,23.7
		C123.4,123.3,113.5,143.7,103.5,168.8z"/>
	<path class="st2" d="M147.2,248.4c0-17.4,5.5-40.9,16.6-70.4c11.1-29.5,23.5-55.5,37.3-77.8c13.8-22.4,24.3-33.6,31.6-33.6
		c2.8,0,4.9,1.8,6.5,5.4c1.6,3.6,2.3,7.6,2.3,12c0,8.6-2.9,19.8-8.7,33.7c-5.8,13.8-13.7,27.6-23.7,41.2
		c-10,13.7-20.1,23.6-30.4,29.8c-2.4,4.4-5.2,12.7-8.4,24.8c-3.2,12.1-4.8,23.2-4.8,33.3c0,17.4,5,26.1,15.1,26.1
		c5.3,0,10.8-2.2,16.5-6.5c5.7-4.4,10.3-10,13.8-16.8c-6.4-3.3-11.4-8.2-14.8-14.7c-3.5-6.5-5.2-13.4-5.2-20.8
		c0-8.6,2.2-15.6,6.7-21c4.5-5.4,9.9-8.1,16.4-8.1c5.3,0,9.5,2.2,12.7,6.6c3.1,4.4,4.7,10.6,4.7,18.7c0,12.1-3.2,24.6-9.6,37.4
		c2.2,0.6,4.6,0.8,7.1,0.8c4.6,0,8.8-0.9,12.7-2.6c3.8-1.7,7.2-4.4,10-7.8c2.8-3.5,5.1-6.6,6.9-9.2c1.7-2.7,3.6-6.1,5.6-10.3
		l3.3,3.6c-8.6,20.9-21.7,31.3-39.3,31.3c-3.1,0-6.1-0.3-8.8-0.8c-12.1,20.4-26.7,30.5-43.7,30.5c-9.4,0-16.4-3.1-21.2-9.2
		C149.6,267.7,147.2,259.2,147.2,248.4z M181.8,178c11.7-9.4,23.1-24.2,34-44.4c10.9-20.3,16.4-34.4,16.4-42.5
		c0-1.5-0.4-2.2-1.1-2.2c-2,0-6.1,4.4-12.2,13.2c-6.1,8.8-12.9,20.4-20.2,34.8C191.3,151.3,185.7,165,181.8,178z M200.5,215.4
		c0,13.2,4.4,22.7,13.2,28.6c4.2-9,6.3-18.2,6.3-27.8c0-6.2-0.9-11.2-2.6-15c-1.7-3.8-3.9-5.6-6.5-5.6c-2.8,0-5.2,1.9-7.3,5.8
		C201.6,205.2,200.5,209.9,200.5,215.4z"/>
</g>
<g>
</g>
<g>
</g>
<g>
</g>
<g>
</g>
<g>
</g>
<g>
</g>
<g>
</g>
</svg>
