<?xml version="1.0" encoding="utf-8"?>
<!-- Generator: Adobe Illustrator 18.1.1, SVG Export Plug-In . SVG Version: 6.00 Build 0)  -->
<svg version="1.1" id="Layer_1" xmlns="http://www.w3.org/2000/svg" xmlns:xlink="http://www.w3.org/1999/xlink" x="0px" y="0px"
	 width="360px" height="360px" viewBox="0 0 360 360" style="enable-background:new 0 0 360 360;" xml:space="preserve">
<style type="text/css">
	.st0{fill:#231F20;}
	.st1{fill:none;}
	.st2{fill:#FFFFFF;}
</style>
<path class="st0" d="M284.1,298.6H75.9c-6.6,0-12-5.4-12-12V78.4c0-6.6,5.4-12,12-12h208.1c6.6,0,12,5.4,12,12v208.1
	C296.1,293.2,290.7,298.6,284.1,298.6z"/>
<g>
	<rect x="83.4" y="61.4" class="st1" width="207.7" height="232.1"/>
	<path class="st2" d="M82,243.5c0-7.2,1.9-16.8,5.8-28.9c3.9-12.1,9-23.2,15.4-33.3c6.4-10.1,12.6-15.1,18.4-15.1c4,0,6,2,6,6.1
		c0,2.2-2.4,7.3-7.1,15.2c-4.8,7.9-9.5,16.9-14.3,26.9c-4.8,10-7.2,18.8-7.2,26.3c0,6.4,1.1,10.8,3.2,13.1c2.1,2.3,5.5,3.4,10.3,3.4
		c14.3,0,28.4-14.1,42.4-42.2l2.5,2.8c-5.1,15.3-12.7,27.3-22.7,35.9c-10,8.6-20.5,12.9-31.5,12.9c-6.8,0-12-2.2-15.7-6.5
		C83.8,255.8,82,250.3,82,243.5z M124.9,131.5c0-3.7,2.2-7,6.6-9.9c4.4-2.9,8.9-4.4,13.5-4.4c6,0,9.1,2.8,9.1,8.2
		c0,3.7-1.9,7.1-5.6,10.3c-3.8,3.2-7.8,4.8-12.2,4.8C128.6,140.6,124.9,137.6,124.9,131.5z"/>
	<path class="st2" d="M139.2,257.5c0-0.6,1.6-4.9,4.8-12.9c3.2-8.1,6.5-17.5,9.8-28.2c3.3-10.7,5-19.6,5-26.5
		c3.5-3.8,7.7-5.8,12.6-5.8s7.4,2.4,7.4,7.2c0,6.2-2.9,18.3-8.8,36.3c21.1-32.3,40.2-48.4,57.2-48.4c6.5,0,11.5,2.4,14.9,7.3
		c3.4,4.9,5.2,10.7,5.2,17.5c0,6-1.8,13.8-5.5,23.1c-3.7,9.3-5.5,16.1-5.5,20.3c0,7,2.7,10.5,8,10.5c11.4,0,24.2-14.3,38.5-42.9
		l3,3.6c-13.2,31-29,46.5-47.4,46.5c-6.2,0-11-1.6-14.3-4.8c-3.3-3.2-4.9-7.5-4.9-12.8c0-3.7,1.3-9.9,4-18.6c2.7-8.7,4-15.3,4-19.7
		c0-9-3.7-13.5-11-13.5c-4.4,0-9.1,1.7-14.2,5.2c-5,3.5-9.5,7.2-13.3,11.3c-3.8,4-8.4,9.9-13.6,17.6c-5.2,7.7-8.9,13.4-11.1,17
		l-10.2,16.8C147,263.5,142.1,261.5,139.2,257.5z"/>
</g>
<g>
</g>
<g>
</g>
<g>
</g>
<g>
</g>
<g>
</g>
<g>
</g>
<g>
</g>
</svg>
